<svg xmlns="http://www.w3.org/2000/svg" xmlns:xlink="http://www.w3.org/1999/xlink" version="1.1" width="256" height="256" viewBox="0 0 256 256" xml:space="preserve">

<defs>
</defs>
<g style="stroke: none; stroke-width: 0; stroke-dasharray: none; stroke-linecap: butt; stroke-linejoin: miter; stroke-miterlimit: 10; fill: none; fill-rule: nonzero; opacity: 1;" transform="translate(1.4065934065934016 1.4065934065934016) scale(2.81 2.81)" >
	<path d="M 44.795 4.69 L 44.795 4.69 c -1.124 0 -2.129 0.625 -2.626 1.632 l -9.462 19.172 c -0.08 0.161 -0.233 0.272 -0.41 0.297 l -21.158 3.075 c -1.111 0.162 -2.016 0.925 -2.364 1.993 c -0.347 1.068 -0.063 2.218 0.741 3.003 l 15.309 14.923 c 0.129 0.125 0.187 0.305 0.157 0.481 l -3.614 21.072 c -0.19 1.107 0.256 2.204 1.165 2.864 c 0.907 0.66 2.09 0.745 3.085 0.224 l 18.924 -9.95 c 0.079 -0.041 0.166 -0.062 0.252 -0.062 C 50.197 46.385 49.056 26.271 44.795 4.69 z" style="stroke: none; stroke-width: 1; stroke-dasharray: none; stroke-linecap: butt; stroke-linejoin: miter; stroke-miterlimit: 10; fill: rgb(255,203,104); fill-rule: nonzero; opacity: 1;" transform=" matrix(1 0 0 1 0 0) " stroke-linecap="round" />
	<path d="M 44.795 4.69 L 44.795 4.69 c 1.124 0 2.129 0.625 2.626 1.632 l 9.462 19.172 c 0.08 0.161 0.233 0.272 0.41 0.297 l 21.158 3.075 c 1.111 0.162 2.016 0.925 2.364 1.993 s 0.063 2.218 -0.741 3.003 L 64.764 48.786 c -0.129 0.125 -0.187 0.305 -0.157 0.481 l 3.615 21.072 c 0.19 1.107 -0.256 2.204 -1.165 2.864 c -0.907 0.66 -2.09 0.745 -3.085 0.224 l -18.924 -9.95 c -0.079 -0.041 -0.166 -0.062 -0.252 -0.062 C 38.43 46.938 39.852 26.687 44.795 4.69 z" style="stroke: none; stroke-width: 1; stroke-dasharray: none; stroke-linecap: butt; stroke-linejoin: miter; stroke-miterlimit: 10; fill: rgb(255,218,119); fill-rule: nonzero; opacity: 1;" transform=" matrix(1 0 0 1 0 0) " stroke-linecap="round" />
	<ellipse cx="30.412" cy="43.283" rx="3.512" ry="4.823" style="stroke: none; stroke-width: 1; stroke-dasharray: none; stroke-linecap: butt; stroke-linejoin: miter; stroke-miterlimit: 10; fill: rgb(255,135,152); fill-rule: nonzero; opacity: 1;" transform=" matrix(0.5 -0.866 0.866 0.5 -22.2815 47.98) "/>
	<ellipse cx="59.183" cy="43.282000000000004" rx="4.823" ry="3.512" style="stroke: none; stroke-width: 1; stroke-dasharray: none; stroke-linecap: butt; stroke-linejoin: miter; stroke-miterlimit: 10; fill: rgb(255,135,152); fill-rule: nonzero; opacity: 1;" transform=" matrix(0.866 -0.5 0.5 0.866 -13.7147 35.3887) "/>
	<path d="M 32.877 40.677 c -0.829 0 -1.5 -0.671 -1.5 -1.5 v -2.704 c 0 -0.829 0.671 -1.5 1.5 -1.5 s 1.5 0.671 1.5 1.5 v 2.704 C 34.377 40.005 33.706 40.677 32.877 40.677 z" style="stroke: none; stroke-width: 1; stroke-dasharray: none; stroke-linecap: butt; stroke-linejoin: miter; stroke-miterlimit: 10; fill: rgb(63,70,72); fill-rule: nonzero; opacity: 1;" transform=" matrix(1 0 0 1 0 0) " stroke-linecap="round" />
	<path d="M 56.713 40.677 c -0.828 0 -1.5 -0.671 -1.5 -1.5 v -2.704 c 0 -0.829 0.672 -1.5 1.5 -1.5 c 0.828 0 1.5 0.671 1.5 1.5 v 2.704 C 58.213 40.005 57.541 40.677 56.713 40.677 z" style="stroke: none; stroke-width: 1; stroke-dasharray: none; stroke-linecap: butt; stroke-linejoin: miter; stroke-miterlimit: 10; fill: rgb(63,70,72); fill-rule: nonzero; opacity: 1;" transform=" matrix(1 0 0 1 0 0) " stroke-linecap="round" />
	<circle cx="44.794000000000004" cy="42.704" r="5.514" style="stroke: none; stroke-width: 1; stroke-dasharray: none; stroke-linecap: butt; stroke-linejoin: miter; stroke-miterlimit: 10; fill: rgb(255,255,255); fill-rule: nonzero; opacity: 1;" transform="  matrix(1 0 0 1 0 0) "/>
	<path d="M 27.302 20.53 c -0.459 0 -0.913 -0.21 -1.208 -0.608 l -11.971 -16.2 c -0.492 -0.666 -0.351 -1.605 0.315 -2.098 c 0.665 -0.491 1.604 -0.352 2.098 0.315 l 11.971 16.2 c 0.492 0.666 0.351 1.605 -0.315 2.098 C 27.925 20.435 27.612 20.53 27.302 20.53 z" style="stroke: none; stroke-width: 1; stroke-dasharray: none; stroke-linecap: butt; stroke-linejoin: miter; stroke-miterlimit: 10; fill: rgb(255,218,119); fill-rule: nonzero; opacity: 1;" transform=" matrix(1 0 0 1 0 0) " stroke-linecap="round" />
	<path d="M 62.288 20.53 c -0.31 0 -0.622 -0.095 -0.891 -0.293 c -0.666 -0.493 -0.807 -1.432 -0.314 -2.098 l 11.971 -16.2 c 0.491 -0.666 1.432 -0.807 2.098 -0.315 c 0.666 0.493 0.807 1.432 0.314 2.098 l -11.971 16.2 C 63.201 20.32 62.747 20.53 62.288 20.53 z" style="stroke: none; stroke-width: 1; stroke-dasharray: none; stroke-linecap: butt; stroke-linejoin: miter; stroke-miterlimit: 10; fill: rgb(255,218,119); fill-rule: nonzero; opacity: 1;" transform=" matrix(1 0 0 1 0 0) " stroke-linecap="round" />
	<path d="M 88.501 57.514 c -0.146 0 -0.292 -0.021 -0.437 -0.065 l -15.621 -4.757 c -0.793 -0.241 -1.24 -1.079 -0.998 -1.871 c 0.24 -0.794 1.083 -1.243 1.871 -0.998 l 15.621 4.757 c 0.793 0.241 1.24 1.079 0.998 1.871 C 89.738 57.098 89.143 57.514 88.501 57.514 z" style="stroke: none; stroke-width: 1; stroke-dasharray: none; stroke-linecap: butt; stroke-linejoin: miter; stroke-miterlimit: 10; fill: rgb(255,218,119); fill-rule: nonzero; opacity: 1;" transform=" matrix(1 0 0 1 0 0) " stroke-linecap="round" />
	<path d="M 1.5 58.545 c -0.629 0 -1.215 -0.398 -1.424 -1.028 c -0.261 -0.786 0.166 -1.635 0.952 -1.895 l 15.434 -5.112 c 0.786 -0.263 1.635 0.165 1.895 0.952 c 0.261 0.786 -0.166 1.635 -0.952 1.895 L 1.972 58.469 C 1.815 58.52 1.657 58.545 1.5 58.545 z" style="stroke: none; stroke-width: 1; stroke-dasharray: none; stroke-linecap: butt; stroke-linejoin: miter; stroke-miterlimit: 10; fill: rgb(255,218,119); fill-rule: nonzero; opacity: 1;" transform=" matrix(1 0 0 1 0 0) " stroke-linecap="round" />
	<path d="M 44.794 88.67 L 44.794 88.67 c -0.829 0 -1.5 -0.672 -1.5 -1.5 l 0 -15.171 c 0 -0.828 0.672 -1.5 1.5 -1.5 l 0 0 c 0.829 0 1.5 0.672 1.5 1.5 L 46.294 87.17 C 46.294 87.998 45.623 88.67 44.794 88.67 z" style="stroke: none; stroke-width: 1; stroke-dasharray: none; stroke-linecap: butt; stroke-linejoin: miter; stroke-miterlimit: 10; fill: rgb(255,218,119); fill-rule: nonzero; opacity: 1;" transform=" matrix(1 0 0 1 0 0) " stroke-linecap="round" />
</g>
</svg>